<svg width="21" height="21" viewBox="0 0 21 21" fill="none" xmlns="http://www.w3.org/2000/svg">
<g clip-path="url(#clip0_115_2)">
<path d="M20.3438 21L0.658974 21C0.296586 21 0.00281239 20.7062 0.00281239 20.3438C0.00281239 19.9814 0.296586 19.6877 0.658974 19.6877L18.7597 19.6877L0.195026 1.12296C0.0275849 0.957544 -0.0384274 0.715111 0.0220316 0.487634C0.0824904 0.260158 0.260157 0.0824905 0.487633 0.0220315C0.715109 -0.0384275 0.957542 0.0275851 1.12296 0.195027L19.6877 18.7597L19.6877 0.658934C19.6877 0.296545 19.9814 0.00277072 20.3438 0.00277072C20.7062 0.00277072 21 0.296545 21 0.658934L21 20.3438C21 20.7062 20.7062 21 20.3438 21Z" fill="white"/>
</g>
<defs>
<clipPath id="clip0_115_2">
<rect width="21" height="21" fill="white" transform="translate(21) rotate(90)"/>
</clipPath>
</defs>
</svg>
